<svg xmlns="http://www.w3.org/2000/svg" width="256" height="256" viewBox="0 0 100 100"><path d="M59.25 74.45Q60.55 74.45 61.30 75.65Q62.05 76.85 62.05 78.95L62.05 78.95Q62.05 82.95 60.15 85.15L60.15 85.15Q56.05 90.15 51.15 93.70Q46.25 97.25 41.45 97.25L41.45 97.25Q33.85 97.25 29.85 88.35L29.85 88.35Q25.65 93.65 22.50 95.45Q19.35 97.25 15.15 97.25L15.15 97.25Q9.05 97.25 5.10 92.70Q1.15 88.15 1.15 80.85L1.15 80.85Q1.15 72.85 4.55 66Q7.95 59.15 13.90 54.80Q19.85 50.45 27.25 49.65L27.25 49.65Q29.15 30.25 34.50 16.50Q39.85 2.75 48.55 2.75L48.55 2.75Q52.85 2.75 55.70 6.65Q58.55 10.55 58.55 18.45L58.55 18.45Q58.55 29.65 53.05 44.65Q47.55 59.65 38.35 75.45L38.35 75.45Q38.75 81.25 40.10 83.75Q41.45 86.25 43.55 86.25L43.55 86.25Q46.25 86.25 49.05 83.85Q51.85 81.45 56.55 75.85L56.55 75.85Q57.75 74.45 59.25 74.45L59.25 74.45ZM47.45 12.55Q45.55 12.55 43.65 19.30Q41.75 26.05 40.40 36.95Q39.05 47.85 38.45 59.75L38.45 59.75Q49.65 35.35 49.65 20.55L49.65 20.55Q49.65 16.75 49 14.65Q48.35 12.55 47.45 12.55L47.45 12.55ZM18.65 87.15Q20.55 87.15 22.45 85.60Q24.35 84.05 27.25 79.85L27.25 79.85Q26.25 74.45 26.25 67.75L26.25 67.75Q26.25 65.35 26.45 59.95L26.45 59.95Q20.95 61.65 17.30 67.30Q13.65 72.95 13.65 79.85L13.65 79.85Q13.65 87.15 18.65 87.15L18.65 87.15ZM73.05 97.25Q63.25 97.25 57.80 91.70Q52.35 86.15 52.35 77.05L52.35 77.05Q52.35 68.95 55.55 62.85Q58.75 56.75 63.85 53.45Q68.95 50.15 74.55 50.15L74.55 50.15Q80.05 50.15 83.10 53.40Q86.15 56.65 86.15 61.75L86.15 61.75Q86.15 65.95 84.30 68.85Q82.45 71.75 79.45 71.75L79.45 71.75Q77.55 71.75 76.40 70.85Q75.25 69.95 75.25 68.35L75.25 68.35Q75.25 67.65 75.45 66.75Q75.65 65.85 75.75 65.45L75.75 65.45Q76.25 63.95 76.25 62.65L76.25 62.65Q76.25 61.35 75.60 60.65Q74.95 59.95 73.75 59.95L73.75 59.95Q71.45 59.95 69.45 62Q67.45 64.05 66.25 67.55Q65.05 71.05 65.05 75.25L65.05 75.25Q65.05 86.85 75.15 86.85L75.15 86.85Q79.25 86.85 84 84.10Q88.75 81.35 93.35 75.85L93.35 75.85Q94.55 74.45 96.05 74.45L96.05 74.45Q97.35 74.45 98.10 75.65Q98.85 76.85 98.85 78.95L98.85 78.95Q98.85 82.75 96.95 85.15L96.95 85.15Q92.25 90.95 85.70 94.10Q79.15 97.25 73.05 97.25L73.05 97.25Z" fill="#ffffff"></path></svg>